<?xml version="1.0" encoding="UTF-8"?>
<svg version="1.1" xmlns="http://www.w3.org/2000/svg" width="512" height="512">
<path d="M0 0 C6.20947063 4.46138132 10.31553986 9.81813497 11.796875 17.34375 C12.28348506 20.77864454 12.35959682 24.03294893 12.32421875 27.5 C12.31519531 28.65242188 12.30617187 29.80484375 12.296875 30.9921875 C12.27947266 32.29542969 12.27947266 32.29542969 12.26171875 33.625 C12.76058594 33.33625 13.25945312 33.0475 13.7734375 32.75 C21.17452883 28.92322387 29.01468135 27.99079701 37.05859375 30.49609375 C42.49693002 32.86021127 42.49693002 32.86021127 44.26171875 34.625 C44.27589844 33.52800781 44.29007813 32.43101563 44.3046875 31.30078125 C44.35160583 29.84631302 44.39985313 28.39188723 44.44921875 26.9375 C44.45791992 25.8556543 44.45791992 25.8556543 44.46679688 24.75195312 C44.49580078 24.04619141 44.52480469 23.34042969 44.5546875 22.61328125 C44.57039795 21.96915283 44.5861084 21.32502441 44.60229492 20.66137695 C45.7065432 17.25133072 47.45185904 15.82882356 50.26171875 13.625 C53.54921029 12.8894257 56.77158186 12.95166223 60.12915039 12.99389648 C61.11831955 12.98674118 62.10748871 12.97958588 63.12663269 12.97221375 C66.392185 12.95532214 69.65636556 12.97473155 72.921875 12.99609375 C75.19201267 12.99526517 77.46215029 12.99280619 79.73228455 12.98878479 C84.48780393 12.98592654 89.2428524 13.00063246 93.99829102 13.02807617 C100.09739704 13.06217782 106.19566197 13.05613423 112.29480839 13.0374136 C116.98138963 13.02685194 121.6677747 13.03577363 126.35433769 13.05079842 C128.60343277 13.05598547 130.85254829 13.05549211 133.1016407 13.04925346 C136.24277025 13.04381075 139.3826899 13.06414644 142.52368164 13.09155273 C143.92099014 13.08176392 143.92099014 13.08176392 145.3465271 13.07177734 C151.64851578 13.16540003 151.64851578 13.16540003 154.80784607 15.53334045 C157.53214428 19.45273755 157.2918778 21.80395935 157.12109375 26.58203125 C155.93053756 44.28512008 155.93053756 44.28512008 162.97949219 59.59057617 C165.62865331 61.8838746 168.25313795 63.82152528 171.26171875 65.625 C173.9832503 62.90346845 174.80972609 59.7198143 176.0546875 56.16015625 C176.60827984 54.62158492 177.16233198 53.08317897 177.71679688 51.54492188 C178.57990196 49.13139275 179.43897033 46.71664293 180.28930664 44.29858398 C183.68896143 34.6630763 187.1893635 25.9612013 193.26171875 17.625 C193.73109863 16.96556396 194.20047852 16.30612793 194.68408203 15.62670898 C202.03335557 5.68594374 215.255167 -1.39256003 227.26171875 -3.375 C245.95282424 -5.32791083 260.34774694 -1.55260151 275.2890625 9.95703125 C284.94935417 18.62717476 292.2671829 31.99813988 293.48510742 45.01196289 C293.60155799 47.59433624 293.63289493 50.16509952 293.63671875 52.75 C293.66121094 53.59820312 293.68570312 54.44640625 293.7109375 55.3203125 C293.7690791 68.34402986 288.31466736 80.56505079 283.66320801 92.52072144 C281.91480862 97.01742 280.18893913 101.52277596 278.4609375 106.02734375 C277.87598007 107.55056999 277.87598007 107.55056999 277.27920532 109.10456848 C271.41192564 124.41157703 265.67816065 139.7692422 259.92692947 155.12012482 C258.71607391 158.35147198 257.50431661 161.5824807 256.29259777 164.81350422 C255.13477742 167.90121778 253.97753793 170.98914875 252.82051659 174.07716179 C252.27971177 175.52043695 251.7387732 176.963662 251.19768715 178.40683174 C250.44472243 180.41546716 249.69247951 182.42437149 248.94042969 184.43334961 C248.30666412 186.12529701 248.30666412 186.12529701 247.66009521 187.85142517 C247.33807452 188.7359997 247.33807452 188.7359997 247.00954837 189.63844442 C246.45861091 191.10197013 245.87212143 192.5522317 245.26635963 193.99392939 C242.4889375 200.9044218 241.70100509 206.76313586 241.80088806 214.16871643 C241.79958706 215.27770214 241.79828606 216.38668784 241.79694563 217.52927917 C241.79737935 221.21717209 241.82632073 224.90426993 241.85522461 228.59204102 C241.86126892 231.24736939 241.86569887 233.90265395 241.86805725 236.5579834 C241.87616385 242.26224293 241.8985496 247.96629939 241.93049431 253.6704731 C241.97645252 261.92844635 241.99715272 270.18633937 242.01128239 278.44442152 C242.03463407 291.85940938 242.07365534 305.27429952 242.12475586 318.68920898 C242.1278048 319.49082197 242.13085373 320.29243495 242.13399506 321.11833923 C242.14637858 324.36626694 242.15881454 327.61419444 242.1713145 330.8621217 C242.20565317 339.80512821 242.23768981 348.74814213 242.26831055 357.69116211 C242.27105765 358.49209392 242.27380475 359.29302573 242.2766351 360.1182282 C242.32207567 373.48665144 242.35553206 386.85508281 242.38130289 400.22355789 C242.39782175 408.45832577 242.42558709 416.69291245 242.46805418 424.92758822 C242.49653912 430.5705962 242.51445577 436.21357351 242.52417009 441.85664482 C242.53017214 445.10862266 242.54281571 448.36033946 242.56550217 451.61224937 C242.58945648 455.14437622 242.59473974 458.67607004 242.5955658 462.20826721 C242.6070328 463.22608247 242.6184998 464.24389773 242.63031429 465.29255587 C242.58522595 477.600303 238.43465406 488.06635097 230.26171875 497.3125 C223.63557342 503.58128019 213.09316549 508.75269265 203.89641953 508.74804783 C202.58865008 508.7510344 202.58865008 508.7510344 201.25446105 508.75408131 C200.30115724 508.75116847 199.34785343 508.74825563 198.36566162 508.74525452 C197.34952294 508.74610894 196.33338425 508.74696337 195.28645349 508.74784368 C191.87161528 508.74949463 188.45682589 508.74398336 185.04199219 508.73852539 C182.59808351 508.73824341 180.15417474 508.73840147 177.71026611 508.7389679 C172.44357421 508.73919583 167.17689758 508.73635402 161.91020966 508.73073006 C154.29545865 508.72260403 146.68071364 508.7199987 139.06595877 508.71874207 C126.71161235 508.71655328 114.35727253 508.70989789 102.00292969 508.70043945 C90.00162794 508.69126085 78.00032799 508.68418221 65.99902344 508.67993164 C65.25929943 508.67966892 64.51957542 508.67940619 63.75743553 508.67913551 C60.04646841 508.67783047 56.33550127 508.67656677 52.62453413 508.67532361 C21.8369242 508.6649564 -8.95067752 508.64726847 -39.73828125 508.625 C-39.73828125 505.985 -39.73828125 503.345 -39.73828125 500.625 C-40.39054688 500.57601563 -41.0428125 500.52703125 -41.71484375 500.4765625 C-49.28623946 499.82886198 -49.28623946 499.82886198 -52.92578125 498.1875 C-55.65701851 497.30018953 -55.65701851 497.30018953 -57.375 498.69140625 C-58.56301134 499.75661192 -59.72907363 500.84667688 -60.875 501.95703125 C-69.16301852 509.37628473 -79.96102279 509.37765608 -90.48535156 508.87353516 C-95.71243759 508.2969017 -100.10639278 505.94094423 -104.73828125 503.625 C-107.584589 502.45829564 -108.47133624 502.52969017 -111.4296875 503.5859375 C-112.37714844 504.05257813 -113.32460937 504.51921875 -114.30078125 505 C-124.09829117 509.75917035 -136.22178513 510.55494917 -146.73828125 507.125 C-162.86499618 499.98775557 -169.73792932 485.15233361 -175.9140625 469.61328125 C-181.86169757 453.88371754 -185.09331922 437.43302908 -185.11328125 420.625 C-185.13777344 419.53960937 -185.16226563 418.45421875 -185.1875 417.3359375 C-185.23319076 404.57298535 -181.39480194 394.06452256 -172.73828125 384.625 C-161.95922831 375.03824888 -150.77883258 371.2680251 -136.53515625 371.328125 C-130.01693484 371.83778017 -123.59792601 373.69517762 -117.73828125 376.625 C-117.44883902 371.02911686 -117.52940962 367.43830745 -120.73828125 362.625 C-125.17705943 358.18622182 -127.36489873 357.44596643 -133.73828125 355.625 C-133.73828125 349.685 -133.73828125 343.745 -133.73828125 337.625 C-123.97374243 337.625 -116.62168643 339.86009971 -109.51953125 346.71484375 C-101.10942437 355.73357678 -98.49258504 364.40007655 -97.73828125 376.625 C-96.74248047 376.20927734 -96.74248047 376.20927734 -95.7265625 375.78515625 C-94.84355469 375.42292969 -93.96054688 375.06070312 -93.05078125 374.6875 C-92.18066406 374.32785156 -91.31054688 373.96820313 -90.4140625 373.59765625 C-84.75815672 371.54171386 -79.69293595 371.53612456 -73.73828125 371.625 C-73.73828125 366.345 -73.73828125 361.065 -73.73828125 355.625 C-76.70828125 355.625 -79.67828125 355.625 -82.73828125 355.625 C-82.73329526 354.90092138 -82.72830927 354.17684277 -82.72317219 353.43082237 C-82.60529713 335.75896643 -82.54882081 318.08796227 -82.55949879 300.41571617 C-82.56320388 291.86919533 -82.54662711 283.32363811 -82.48120117 274.77734375 C-82.4241841 267.32258233 -82.4063446 259.86889586 -82.43427485 252.41395152 C-82.44771187 248.47123429 -82.44239904 244.5306759 -82.3900547 240.58823776 C-81.37253604 219.92247226 -81.37253604 219.92247226 -90.58894825 202.3548336 C-91.95074889 201.08824965 -93.34358177 199.85526389 -94.73828125 198.625 C-104.21587895 186.34906442 -106.81652244 173.84381169 -105.73828125 158.625 C-105.09303101 155.10059867 -104.10702506 151.92971478 -102.73828125 148.625 C-102.45210938 147.9134375 -102.1659375 147.201875 -101.87109375 146.46875 C-101.19256512 144.84028128 -100.4709294 143.22984833 -99.73828125 141.625 C-104.45950449 136.80541794 -109.22181114 132.1221923 -114.34375 127.73046875 C-119.92357758 122.82422558 -125.30867799 117.69618844 -130.73828125 112.625 C-129.90186921 108.47762968 -128.07060614 106.4736858 -125.17578125 103.375 C-124.34949219 102.48296875 -123.52320313 101.5909375 -122.671875 100.671875 C-122.03378906 99.99640625 -121.39570312 99.3209375 -120.73828125 98.625 C-117.56776855 99.2084087 -115.88178228 100.09410092 -113.56640625 102.3203125 C-112.98842285 102.86800293 -112.41043945 103.41569336 -111.81494141 103.97998047 C-110.91074463 104.85614014 -110.91074463 104.85614014 -109.98828125 105.75 C-108.73122549 106.94350587 -107.47341851 108.13622104 -106.21484375 109.328125 C-105.61317383 109.90111328 -105.01150391 110.47410156 -104.39160156 111.06445312 C-101.84051745 113.47238721 -99.20580631 115.77524726 -96.546875 118.0625 C-95.21361323 119.21434602 -93.89543868 120.38371128 -92.5859375 121.5625 C-91.87308594 122.201875 -91.16023438 122.84125 -90.42578125 123.5 C-89.79027344 124.07492188 -89.15476562 124.64984375 -88.5 125.2421875 C-86.67780804 126.83238006 -86.67780804 126.83238006 -83.73828125 127.625 C-86.24463153 122.73088684 -88.75324023 117.83794052 -91.26391602 112.94604492 C-92.11707174 111.28294966 -92.96961784 109.61954152 -93.8215332 107.95581055 C-95.04867602 105.55955094 -96.27803261 103.16443834 -97.5078125 100.76953125 C-97.88605667 100.0297554 -98.26430084 99.28997955 -98.65400696 98.52778625 C-100.19769624 95.52589842 -101.72809406 92.64073344 -103.56518555 89.8034668 C-103.95230713 89.08457275 -104.33942871 88.36567871 -104.73828125 87.625 C-103.39785008 83.6037065 -100.91583769 82.73549831 -97.36328125 80.875 C-96.77289063 80.54628906 -96.1825 80.21757813 -95.57421875 79.87890625 C-94.00527999 79.04143218 -92.37315987 78.32507397 -90.73828125 77.625 C-86.70203049 78.97041692 -85.88380172 81.48447465 -84.05078125 85.0625 C-83.73044922 85.66126953 -83.41011719 86.26003906 -83.08007812 86.87695312 C-80.73828125 91.33585421 -80.73828125 91.33585421 -80.73828125 93.625 C-80.05765625 92.92375 -79.37703125 92.2225 -78.67578125 91.5 C-75.53047612 88.34565663 -72.14944265 85.48565696 -68.73828125 82.625 C-69.3415625 82.068125 -69.94484375 81.51125 -70.56640625 80.9375 C-78.05696584 73.78522375 -82.75702887 67.106007 -83.05078125 56.5 C-82.94820519 48.80679556 -80.78223781 42.46810368 -75.55078125 36.75 C-68.39939785 30.36806925 -61.56892915 28.97176539 -52.0703125 29.21875 C-47.49960756 29.77602235 -44.59359607 31.15759851 -40.73828125 33.625 C-40.7125 32.50222656 -40.68671875 31.37945312 -40.66015625 30.22265625 C-40.2792062 18.85129738 -39.09996438 9.98668313 -30.73828125 1.625 C-21.41545991 -4.92617175 -9.96405681 -5.64790337 0 0 Z " fill="#010100" transform="translate(201.73828125,3.375)"/>
<path d="M0 0 C2.40806756 1.03001327 4.37936873 2.3198313 6.51953125 3.83203125 C7.37740234 4.41984375 8.23527344 5.00765625 9.11914062 5.61328125 C10.91048904 6.85514426 12.69444323 8.10774358 14.47070312 9.37109375 C19.67944882 12.95545693 19.67944882 12.95545693 25.80078125 13.953125 C29.04549536 12.83985923 31.54191334 11.59497815 34.375 9.66796875 C35.31214844 9.04535156 36.24929687 8.42273438 37.21484375 7.78125 C39.00771142 6.54158133 40.79233523 5.28985958 42.56640625 4.0234375 C43.34886719 3.47300781 44.13132813 2.92257813 44.9375 2.35546875 C45.62714844 1.85015625 46.31679687 1.34484375 47.02734375 0.82421875 C49 -0.14453125 49 -0.14453125 50.83862305 0.11108398 C53.41215066 0.99741468 55.31689768 2.24690574 57.5546875 3.796875 C58.41707031 4.38017578 59.27945313 4.96347656 60.16796875 5.56445312 C61.96916931 6.79774269 63.76608316 8.03731694 65.55859375 9.28320312 C66.42355469 9.86521484 67.28851563 10.44722656 68.1796875 11.046875 C69.35120361 11.85427124 69.35120361 11.85427124 70.54638672 12.67797852 C73.64478967 14.16490363 75.59555518 14.27277889 79 13.85546875 C81.59912439 12.59989256 81.59912439 12.59989256 84.00390625 10.7578125 C84.90947266 10.12166016 85.81503906 9.48550781 86.74804688 8.83007812 C88.62876778 7.46880685 90.50897398 6.10682417 92.38867188 4.74414062 C93.29294922 4.10927734 94.19722656 3.47441406 95.12890625 2.8203125 C95.94431885 2.22855225 96.75973145 1.63679199 97.59985352 1.02709961 C100.57707019 -0.42622791 101.89932353 -0.16872052 105 0.85546875 C107.359375 2.2734375 107.359375 2.2734375 109.75 4.04296875 C110.61625 4.666875 111.4825 5.29078125 112.375 5.93359375 C114.06445266 7.17051445 115.75210249 8.40990328 117.4375 9.65234375 C118.200625 10.19375 118.96375 10.73515625 119.75 11.29296875 C120.76320313 12.03353516 120.76320313 12.03353516 121.796875 12.7890625 C124.74072729 14.21401228 126.74761519 14.12206177 130 13.85546875 C132.59912439 12.59989256 132.59912439 12.59989256 135.00390625 10.7578125 C135.90947266 10.12166016 136.81503906 9.48550781 137.74804688 8.83007812 C139.62876778 7.46880685 141.50897398 6.10682417 143.38867188 4.74414062 C144.29294922 4.10927734 145.19722656 3.47441406 146.12890625 2.8203125 C146.94431885 2.22855225 147.75973145 1.63679199 148.59985352 1.02709961 C151.69734629 -0.48494065 152.70103432 -0.07735776 156 0.85546875 C161.58027446 3.10067454 166.53752752 5.78661856 170 10.85546875 C172.64717655 18.76970603 171.76638966 27.63685202 171.58935547 35.85791016 C171.5854039 38.42092674 171.58762807 40.98395917 171.59555054 43.54696655 C171.59873233 49.05374493 171.55920437 54.55754395 171.48022079 60.06370926 C171.36611084 68.0238432 171.32994865 75.98285631 171.31238891 83.94371943 C171.28179826 96.86106766 171.18877033 109.77717348 171.05615234 122.69384766 C170.92751303 135.23610342 170.82864259 147.77801922 170.76904297 160.32080078 C170.76529101 161.10267159 170.76153904 161.88454241 170.75767338 162.69010627 C170.72855899 168.80546203 170.70116292 174.92082517 170.67430949 181.03619123 C170.54239541 210.97709101 170.26071281 240.91487824 170 270.85546875 C107.96 270.85546875 45.92 270.85546875 -18 270.85546875 C-18 273.82546875 -18 276.79546875 -18 279.85546875 C-27.33752577 279.15423164 -27.33752577 279.15423164 -31.1875 277.41796875 C-33.91873726 276.53065828 -33.91873726 276.53065828 -35.63671875 277.921875 C-36.82473009 278.98708067 -37.99079238 280.07714563 -39.13671875 281.1875 C-47.42473727 288.60675348 -58.22274154 288.60812483 -68.74707031 288.10400391 C-73.97415634 287.52737045 -78.36811153 285.17141298 -83 282.85546875 C-85.84630775 281.68876439 -86.73305499 281.76015892 -89.69140625 282.81640625 C-90.63886719 283.28304688 -91.58632812 283.7496875 -92.5625 284.23046875 C-102.36000992 288.9896391 -114.48350388 289.78541792 -125 286.35546875 C-141.12671493 279.21822432 -147.99964807 264.38280236 -154.17578125 248.84375 C-160.12341632 233.11418629 -163.35503797 216.66349783 -163.375 199.85546875 C-163.39949219 198.77007812 -163.42398438 197.6846875 -163.44921875 196.56640625 C-163.49490951 183.8034541 -159.65652069 173.29499131 -151 163.85546875 C-140.22094706 154.26871763 -129.04055133 150.49849385 -114.796875 150.55859375 C-108.27865359 151.06824892 -101.85964476 152.92564637 -96 155.85546875 C-95.71055777 150.25958561 -95.79112837 146.6687762 -99 141.85546875 C-103.43877818 137.41669057 -105.62661748 136.67643518 -112 134.85546875 C-112 128.91546875 -112 122.97546875 -112 116.85546875 C-102.23546118 116.85546875 -94.88340518 119.09056846 -87.78125 125.9453125 C-79.37114312 134.96404553 -76.75430379 143.6305453 -76 155.85546875 C-75.33613281 155.57832031 -74.67226562 155.30117188 -73.98828125 155.015625 C-73.10527344 154.65339844 -72.22226563 154.29117188 -71.3125 153.91796875 C-70.00732422 153.37849609 -70.00732422 153.37849609 -68.67578125 152.828125 C-63.01987547 150.77218261 -57.9546547 150.76659331 -52 150.85546875 C-52 145.57546875 -52 140.29546875 -52 134.85546875 C-49.03 134.85546875 -46.06 134.85546875 -43 134.85546875 C-43 92.28546875 -43 49.71546875 -43 5.85546875 C-34 10.85546875 -34 10.85546875 -31.375 12.73046875 C-28.0143611 14.32235033 -25.44174434 13.9584492 -22 12.85546875 C-18.44253826 10.87885772 -15.1405978 8.56820681 -11.8125 6.23046875 C-10.0561932 4.99761524 -8.292156 3.77567993 -6.51953125 2.56640625 C-5.74714111 2.02290527 -4.97475098 1.4794043 -4.17895508 0.91943359 C-2 -0.14453125 -2 -0.14453125 0 0 Z " fill="#EFAD61" transform="translate(180,224.14453125)"/>
<path d="M0 0 C9.76453882 0 17.11659482 2.23509971 24.21875 9.08984375 C32.62885688 18.10857678 35.24569621 26.77507655 36 39 C36.66386719 38.72285156 37.32773438 38.44570313 38.01171875 38.16015625 C39.33623047 37.61681641 39.33623047 37.61681641 40.6875 37.0625 C41.99267578 36.52302734 41.99267578 36.52302734 43.32421875 35.97265625 C53.44641016 32.29320273 65.49027758 33.31997393 75.33984375 37.375 C87.32425684 43.41615106 95.97211924 52.03709798 101.03125 64.55078125 C109.40196669 90.70927092 98.00096365 124.36829973 86.00317383 147.75561523 C80.78854752 157.38859582 74.41659231 165.4740912 64.1875 169.8125 C52.04073235 173.41077192 40.10533388 171.55266694 29 166 C26.15369225 164.83329564 25.26694501 164.90469017 22.30859375 165.9609375 C20.88740234 166.66089844 20.88740234 166.66089844 19.4375 167.375 C9.63999008 172.13417035 -2.48350388 172.92994917 -13 169.5 C-29.12671493 162.36275557 -35.99964807 147.52733361 -42.17578125 131.98828125 C-48.12341632 116.25871754 -51.35503797 99.80802908 -51.375 83 C-51.39949219 81.91460937 -51.42398438 80.82921875 -51.44921875 79.7109375 C-51.49490951 66.94798535 -47.65652069 56.43952256 -39 47 C-28.22094706 37.41324888 -17.04055133 33.6430251 -2.796875 33.703125 C3.72134641 34.21278017 10.14035524 36.07017762 16 39 C16.28944223 33.40411686 16.20887163 29.81330745 13 25 C8.56122182 20.56122182 6.37338252 19.82096643 0 18 C0 12.06 0 6.12 0 0 Z " fill="#E1574A" transform="translate(68,341)"/>
<path d="M0 0 C4.60901802 2.61000588 8.95001841 5.6127019 13.296875 8.63476562 C17.71905307 11.59999395 21.20624841 13.67483694 26.7109375 13.53515625 C29.26401143 12.31487346 31.25351338 11.20011144 33.5234375 9.59765625 C39.53919293 5.53515625 39.53919293 5.53515625 41.7109375 5.53515625 C41.77940964 36.33871065 41.83248425 67.14224761 41.86413349 97.94585996 C41.8678855 101.58443086 41.87176848 105.2230016 41.87573242 108.86157227 C41.87651935 109.58593086 41.87730628 110.31028946 41.87811706 111.05659831 C41.89116269 122.77758744 41.91481188 134.49853233 41.94239589 146.21949523 C41.97047356 158.25077796 41.98711875 170.28203755 41.99320298 182.31335169 C41.99694606 189.06926841 42.00593135 195.82509295 42.02812767 202.58097649 C42.04850577 208.94123376 42.05476854 215.30134953 42.05026054 221.66163635 C42.05108514 223.99445935 42.05704277 226.32728712 42.06855392 228.66008186 C42.08351843 231.84944282 42.07987635 235.03827216 42.07170105 238.22764587 C42.08043957 239.14693074 42.0891781 240.0662156 42.09818143 241.01335758 C42.03576253 250.04610821 39.9193657 257.17232584 33.6796875 263.80859375 C26.90595349 269.74905096 19.73510872 270.68838414 11.0078125 270.6328125 C9.75112762 270.63069008 9.75112762 270.63069008 8.46905518 270.62852478 C5.79964593 270.62293822 3.1303213 270.61038819 0.4609375 270.59765625 C-1.35156129 270.59263951 -3.16406139 270.58807691 -4.9765625 270.58398438 C-9.41409498 270.57297319 -13.85156441 270.5557178 -18.2890625 270.53515625 C-18.54089381 237.54903125 -18.73469494 204.56315575 -18.85078112 171.57628861 C-18.86453874 167.68106583 -18.8787763 163.78584495 -18.89331055 159.890625 C-18.89619596 159.11516364 -18.89908138 158.33970229 -18.90205423 157.5407421 C-18.94990659 144.9878577 -19.03662909 132.43552798 -19.13774326 119.88297254 C-19.24064613 107.00082716 -19.3017163 94.11897206 -19.32403594 81.23643255 C-19.33912283 73.28816268 -19.38674943 65.34146054 -19.47614364 57.39367336 C-19.54122063 51.29692715 -19.54806169 45.20152648 -19.53324699 39.10439301 C-19.5362741 36.60496622 -19.5581687 34.10548029 -19.60032272 31.60640717 C-19.90325352 12.72155209 -19.90325352 12.72155209 -15.93201637 7.34257507 C-13.10340684 5.23375713 -10.54117979 3.87217628 -7.2890625 2.53515625 C-6.39300136 1.97613869 -5.49694021 1.41712112 -4.5737257 0.84116364 C-2.2890625 -0.46484375 -2.2890625 -0.46484375 0 0 Z " fill="#E4984D" transform="translate(385.2890625,224.46484375)"/>
<path d="M0 0 C9.56765927 6.73416018 16.41201289 16.14600197 18.71875 27.6796875 C19.51524635 34.59327582 18.68771719 40.60353787 16.5246582 47.18945312 C16.30082868 47.88662193 16.07699915 48.58379074 15.84638691 49.30208588 C13.56851544 56.30796133 11.01186644 63.20349196 8.38671875 70.0859375 C7.87600354 71.43598032 7.36574342 72.78619538 6.855896 74.13656616 C5.21191813 78.48652275 3.5594536 82.83323053 1.90625 87.1796875 C-0.43457766 93.33767513 -2.77301963 99.49656425 -5.109375 105.65625 C-5.4061017 106.43787632 -5.70282841 107.21950264 -6.00854683 108.02481461 C-10.15936377 118.96514303 -14.21683647 129.93559539 -18.19567299 140.93958282 C-19.79819973 145.36348424 -21.41512357 149.78215033 -23.03166485 154.20094681 C-24.56169085 158.38927779 -26.06698343 162.58547402 -27.55508232 166.78886986 C-28.26065888 168.76738496 -28.97910853 170.74063319 -29.70355225 172.71231079 C-30.57975574 175.09725674 -31.43580373 177.48975706 -32.26641846 179.89096069 C-35.43647205 188.36328811 -39.70790878 193.05817973 -47.91342163 196.91777039 C-50.28125 197.6796875 -50.28125 197.6796875 -52.65307617 196.72924805 C-53.85154175 195.90614136 -53.85154175 195.90614136 -55.07421875 195.06640625 C-55.95142578 194.47794922 -56.82863281 193.88949219 -57.73242188 193.28320312 C-58.63541016 192.65091797 -59.53839844 192.01863281 -60.46875 191.3671875 C-62.2745682 190.14167451 -64.08054969 188.91640209 -65.88671875 187.69140625 C-66.68231201 187.13928467 -67.47790527 186.58716309 -68.29760742 186.01831055 C-71.27516667 184.00896195 -73.53312259 183.18874778 -77.18603516 183.24267578 C-81.72033967 184.18842328 -85.3166829 187.40722318 -88.96875 190.1171875 C-90.6356137 191.32933589 -92.30605646 192.53658171 -93.98046875 193.73828125 C-95.07621216 194.54736938 -95.07621216 194.54736938 -96.1940918 195.37280273 C-98.33811358 196.71529292 -99.76145012 197.46033062 -102.28125 197.6796875 C-104.20410156 196.78344727 -104.20410156 196.78344727 -106.171875 195.37109375 C-106.88085938 194.87158203 -107.58984375 194.37207031 -108.3203125 193.85742188 C-109.41472656 193.05788086 -109.41472656 193.05788086 -110.53125 192.2421875 C-111.27632813 191.71302734 -112.02140625 191.18386719 -112.7890625 190.63867188 C-114.62819072 189.33006141 -116.45649969 188.00820598 -118.28125 186.6796875 C-116.03568371 178.66223816 -113.20870018 170.91905893 -110.25 163.140625 C-109.74478591 161.80465121 -109.2399025 160.46855233 -108.73532104 159.13233948 C-107.65347032 156.26921497 -106.56960082 153.40686666 -105.48406982 150.5451355 C-102.86156305 143.63138599 -100.24861331 136.71402197 -97.63462448 129.79704857 C-96.71916128 127.37494936 -95.80327009 124.95301226 -94.88735962 122.53108215 C-90.51479076 110.96515893 -86.16853763 99.38954306 -81.8359375 87.80859375 C-81.22533212 86.17699796 -80.61471612 84.54540614 -80.00408936 82.91381836 C-77.6482678 76.61828092 -75.29269584 70.32265251 -72.94165039 64.02532959 C-62.4783338 36.00190702 -62.4783338 36.00190702 -57.68359375 23.94921875 C-57.37291962 23.16514145 -57.06224548 22.38106415 -56.74215698 21.57322693 C-51.79578582 9.28941804 -44.58977259 1.83490564 -32.40625 -3.8203125 C-21.57159849 -7.66044215 -9.81468968 -5.68041971 0 0 Z " fill="#D47E32" transform="translate(459.28125,22.3203125)"/>
<path d="M0 0 C9.76453882 0 17.11659482 2.23509971 24.21875 9.08984375 C32.62885688 18.10857678 35.24569621 26.77507655 36 39 C36.66386719 38.72285156 37.32773438 38.44570313 38.01171875 38.16015625 C39.33623047 37.61681641 39.33623047 37.61681641 40.6875 37.0625 C41.99267578 36.52302734 41.99267578 36.52302734 43.32421875 35.97265625 C53.44641016 32.29320273 65.49027758 33.31997393 75.33984375 37.375 C87.32425684 43.41615106 95.97211924 52.03709798 101.03125 64.55078125 C109.40196669 90.70927092 98.00096365 124.36829973 86.00317383 147.75561523 C80.78854752 157.38859582 74.41659231 165.4740912 64.1875 169.8125 C52.04073235 173.41077192 40.10533388 171.55266694 29 166 C26.15369225 164.83329564 25.26694501 164.90469017 22.30859375 165.9609375 C20.88740234 166.66089844 20.88740234 166.66089844 19.4375 167.375 C9.63999008 172.13417035 -2.48350388 172.92994917 -13 169.5 C-29.12671493 162.36275557 -35.99964807 147.52733361 -42.17578125 131.98828125 C-48.12341632 116.25871754 -51.35503797 99.80802908 -51.375 83 C-51.39949219 81.91460937 -51.42398438 80.82921875 -51.44921875 79.7109375 C-51.49490951 66.94798535 -47.65652069 56.43952256 -39 47 C-28.22094706 37.41324888 -17.04055133 33.6430251 -2.796875 33.703125 C3.72134641 34.21278017 10.14035524 36.07017762 16 39 C16.28944223 33.40411686 16.20887163 29.81330745 13 25 C8.56122182 20.56122182 6.37338252 19.82096643 0 18 C0 12.06 0 6.12 0 0 Z M-22 56 C-22.86625 56.53625 -23.7325 57.0725 -24.625 57.625 C-30.28664614 63.28664614 -34.09965714 70.25240871 -34.18994141 78.29272461 C-34.18913574 78.97987549 -34.18833008 79.66702637 -34.1875 80.375 C-34.18669434 81.08599854 -34.18588867 81.79699707 -34.18505859 82.52954102 C-33.95080886 103.08610323 -27.85871681 132.28774614 -13.44921875 147.734375 C-8.16180315 152.62544525 -3.04157751 154.5 4.171875 154.5 C8.61192433 153.7150189 12.48751001 151.62848897 16.41918945 149.49023438 C20.99581841 147.09808554 24.84242857 146.10955728 30 147 C32.60064033 147.92858257 34.95569965 149.17756007 37.375 150.5 C44.19658316 153.92816547 49.61751278 155.66209659 57.17578125 153.328125 C65.13773622 149.90943247 69.54259842 142.87475676 73 135.25 C73.50200928 134.15896973 73.50200928 134.15896973 74.01416016 133.04589844 C81.37065987 116.56649794 85.05304899 100.27648075 85.4375 82.25 C85.47214355 81.27901367 85.50678711 80.30802734 85.54248047 79.30761719 C85.58812029 71.22245365 83.30145306 65.75309693 77.97265625 59.6953125 C77.34230469 59.17710937 76.71195312 58.65890625 76.0625 58.125 C75.12083984 57.32449219 75.12083984 57.32449219 74.16015625 56.5078125 C66.3685664 51.06919825 59.09752382 51.22180041 50 52 C43.45083498 53.40796382 38.99230857 58.54591399 34.56152344 63.2902832 C31.80036509 66.06598878 29.73924054 67.36416311 25.8828125 67.52734375 C21.90815696 66.98752635 20.61711544 66.59616264 17.875 63.8125 C17.215 63.17441406 16.555 62.53632813 15.875 61.87890625 C14.946875 60.94884766 14.946875 60.94884766 14 60 C7.83918764 54.4167638 2.5906095 51.43831503 -5.875 51.5625 C-6.93618042 51.57168457 -6.93618042 51.57168457 -8.01879883 51.58105469 C-13.59576275 51.74820289 -17.5247011 52.72650771 -22 56 Z " fill="#020100" transform="translate(68,341)"/>
<path d="M0 0 C2.41595541 1.66147639 3.79133511 2.93808232 4.36920166 5.87890625 C4.52730037 8.26043858 4.55336861 10.61325024 4.5390625 13 C4.55085541 13.87269531 4.56264832 14.74539062 4.57479858 15.64453125 C4.61006982 18.4298691 4.61922885 21.21445706 4.625 24 C4.64135028 26.78531751 4.66341017 29.57030002 4.69662476 32.35546875 C4.71622849 34.08715187 4.72559246 35.81898839 4.72354126 37.55078125 C4.73050018 38.33839844 4.73745911 39.12601563 4.74462891 39.9375 C4.74588776 40.62714844 4.74714661 41.31679688 4.7484436 42.02734375 C5.04920385 44.38584698 5.760532 45.97870638 7 48 C10.26047629 49.63023814 12.37801035 49.4673535 16 49 C19.94286171 46.44355104 23.07834169 42.99169797 26.26171875 39.56640625 C32.19794907 33.26735031 32.19794907 33.26735031 36.75 31.75 C40.40703007 32.03131001 42.14983509 32.71986807 45 35 C47.45065834 38.6759875 47.38760242 40.31644498 46.79785156 44.56591797 C45.23837777 49.32355375 41.49851698 52.27527932 37.875 55.5625 C36.37002637 56.97795365 34.86740076 58.39590816 33.3671875 59.81640625 C32.63226074 60.50605469 31.89733398 61.19570312 31.14013672 61.90625 C28.42544245 64.56210421 25.95702623 67.38434747 23.49169922 70.27026367 C21.79353141 72.2394157 19.99744921 74.07158118 18.125 75.875 C15.17057821 78.72343356 14.03887802 79.9422993 13.88215637 84.20600891 C13.87978961 85.60389238 13.88280184 87.00179071 13.88989258 88.3996582 C13.88934982 89.98081972 13.88876281 91.56198122 13.88813782 93.1431427 C13.88956598 93.98331247 13.89099415 94.82348225 13.89246559 95.68911171 C13.89597859 100.13069373 13.87019133 104.57214801 13.84960938 109.01367188 C13.82526702 114.66929707 13.80957322 120.32455436 13.82495117 125.98022461 C13.83660816 130.54753965 13.819228 135.1139401 13.78250694 139.68111229 C13.77388704 141.42138897 13.77597881 143.1617531 13.789011 144.90200233 C13.80590009 147.33973808 13.78571786 149.77459116 13.75708008 152.2121582 C13.77087204 152.92974808 13.784664 153.64733795 13.7988739 154.38667297 C13.73382197 157.2453415 13.52869269 159.39290428 11.61383629 161.5917263 C9.9526825 162.98674011 9.9526825 162.98674011 7 165 C5.87198131 162.77232063 4.74738071 160.54302068 3.625 158.3125 C3.26921875 157.60786621 2.9134375 156.90323242 2.546875 156.17724609 C0.46317074 152.02151351 -1.54679611 147.84287511 -3.4765625 143.61328125 C-10.4226749 128.43443932 -16.80795929 116.26032623 -33.125 109.75390625 C-37.35861426 108.30918538 -41.48053288 107.10054202 -45.875 106.25 C-50.49565939 104.40173624 -52.80585182 101.41155587 -55 97 C-55.98568194 92.89926216 -55.39537198 89.82512414 -53.5625 86 C-50.25245407 83.41654952 -48.11127076 83.55001156 -44.0234375 83.7265625 C-42 84 -42 84 -40 85 C-36.16385043 85.35519903 -33.85370366 85.54724594 -30.5625 83.4375 C-28.35080349 79.98725344 -28.47439554 78.05883443 -29 74 C-30.75711879 71.23333659 -32.98168683 69.03989532 -35.3125 66.75 C-35.94244873 66.10393799 -36.57239746 65.45787598 -37.22143555 64.79223633 C-39.13010168 62.84310888 -41.06128127 60.91919135 -43 59 C-44.11507688 57.88460777 -45.22969335 56.76875499 -46.34375 55.65234375 C-48.21353234 53.77986936 -50.09498644 51.92329061 -51.98828125 50.07421875 C-54.80334157 47.17170025 -54.97175652 46.34457043 -55.3125 42.1875 C-55.25598836 39.07935995 -54.95516489 37.91570999 -53.4375 35.0625 C-50.19191588 32.31623651 -48.23707546 31.92694697 -44 32 C-38.29420122 35.1917797 -34.28095454 39.70997361 -30.03125 44.57421875 C-27.16155692 47.63106573 -25.12753922 49.42086125 -20.8359375 49.703125 C-17.00159618 49.34233339 -17.00159618 49.34233339 -14.78735352 47.03833008 C-12.3180495 42.84074936 -12.48587901 39.46549801 -12.56640625 34.68359375 C-12.55680423 32.84960851 -12.54703352 31.01562415 -12.53710938 29.18164062 C-12.54572325 26.3023921 -12.56260854 23.42336525 -12.5847168 20.54418945 C-12.59921794 17.75687884 -12.58400268 14.97085819 -12.56640625 12.18359375 C-12.58288712 11.32309921 -12.59936798 10.46260468 -12.61634827 9.57603455 C-12.56658918 3.6305869 -12.56658918 3.6305869 -9.68725586 0.42602539 C-5.98463643 -1.53881517 -3.97904417 -1.15754012 0 0 Z " fill="#6E922C" transform="translate(192,18)"/>
<path d="M0 0 C25.41 0 50.82 0 77 0 C77 33.99 77 67.98 77 103 C76.67 103 76.34 103 76 103 C75.85304688 102.05640625 75.70609375 101.1128125 75.5546875 100.140625 C72.62344741 83.3618024 65.345669 70.81413815 51.44921875 60.53125 C34.69284458 50.05517556 18.80180693 50.97104137 0 55 C0 36.85 0 18.7 0 0 Z " fill="#62A5D2" transform="translate(222,111)"/>
<path d="M0 0 C1.0978393 0.81412802 2.17747787 1.65279764 3.25 2.5 C3.85328125 2.9640625 4.4565625 3.428125 5.078125 3.90625 C10.88986517 10.23773929 11.63122665 16.65795004 11.4375 25 C11.42211182 26.01819824 11.40672363 27.03639648 11.39086914 28.08544922 C10.86767298 48.74273317 5.03644811 75.0945382 -8.88671875 91.1796875 C-14.09895279 95.90574786 -19.07340344 97.60757661 -25.984375 97.53515625 C-30.54406027 96.7259893 -34.4266018 94.70274895 -38.47021484 92.49047852 C-43.03044924 90.08549047 -46.85159807 89.11409013 -52 90 C-54.62123626 90.9278473 -56.99794162 92.17457822 -59.4375 93.5 C-66.99642237 97.29208901 -72.17902198 98.37305147 -80.25 95.8125 C-85.16554431 93.74640468 -88.07726318 90.38410523 -91 86 C-90.48695312 85.82726562 -89.97390625 85.65453125 -89.4453125 85.4765625 C-52.01101174 71.73804808 -19.34018366 40.45778397 -2 5 C-1.30351217 3.34557353 -0.62009908 1.68454723 0 0 Z " fill="#D4463F" transform="translate(142,398)"/>
<path d="M0 0 C4.55587108 2.19907027 7.69887444 5.18326775 11.3125 8.6875 C11.97056641 9.28755859 12.62863281 9.88761719 13.30664062 10.50585938 C13.92345703 11.10591797 14.54027344 11.70597656 15.17578125 12.32421875 C15.74208252 12.86135498 16.30838379 13.39849121 16.8918457 13.9519043 C18.60103655 17.11083843 17.65153489 19.53124972 17 23 C16.3211058 25.15956211 15.57379564 27.29847786 14.76953125 29.41455078 C14.54277081 30.01712456 14.31601036 30.61969833 14.08237839 31.24053192 C13.3324983 33.22808655 12.57252477 35.21161746 11.8125 37.1953125 C11.27639353 38.61070759 10.74094675 40.0263527 10.20611572 41.44223022 C8.77505766 45.22522538 7.33525721 49.00483104 5.89308167 52.78359985 C4.40269278 56.69096565 2.91779707 60.60041756 1.43261719 64.50976562 C0.8366171 66.07855537 0.2406088 67.64734199 -0.35540771 69.21612549 C-0.64995598 69.99144875 -0.94450424 70.766772 -1.24797821 71.5655899 C-2.14092984 73.9148645 -3.03503271 76.26369862 -3.92926025 78.61248779 C-7.44465333 87.85338633 -10.9005055 97.113015 -14.296875 106.3984375 C-15.43090928 109.47898835 -16.56612331 112.55910188 -17.70166016 115.63909912 C-18.39572401 117.53318711 -19.0836445 119.42953855 -19.76513672 121.32818604 C-20.6971824 123.92291725 -21.65068552 126.5087689 -22.609375 129.09375 C-22.86773132 129.83321869 -23.12608765 130.57268738 -23.39227295 131.33456421 C-25.29978756 136.38595656 -27.57308385 138.88493122 -32 142 C-32.33 142 -32.66 142 -33 142 C-33.77334751 128.36218424 -34.35508671 114.72976573 -34.70980167 101.074296 C-34.88031656 94.72796806 -35.11013157 88.39687257 -35.48950195 82.05932617 C-38.11316474 37.088959 -38.11316474 37.088959 -25.50732422 22.10107422 C-17.92327585 13.69307937 -9.20807187 6.55044105 0 0 Z " fill="#3F91C7" transform="translate(349,72)"/>
<path d="M0 0 C11.11908516 7.13299803 15.9183491 22.95662463 21.3125 34.5 C22.14339054 36.26845932 22.97476696 38.03669043 23.80664062 39.8046875 C25.31724435 43.01616599 26.82478594 46.22904533 28.3293457 49.44335938 C29.20306507 51.30341253 30.08095884 53.16191768 31 55 C31.06950541 56.54023996 31.08452357 58.08334988 31.0625 59.625 C31.05347656 60.44226563 31.04445313 61.25953125 31.03515625 62.1015625 C31.02355469 62.72804688 31.01195312 63.35453125 31 64 C26.25 62.125 26.25 62.125 24 61 C19.19233138 60.56354964 16.71096741 61.36453567 12.75 64.0625 C11.80382812 64.6915625 10.85765625 65.320625 9.8828125 65.96875 C7.97867608 67.31041794 6.09742582 68.68524045 4.2421875 70.09375 C2.94667969 71.06828125 2.94667969 71.06828125 1.625 72.0625 C0.85414063 72.67222656 0.08328125 73.28195313 -0.7109375 73.91015625 C-3 75 -3 75 -5.30859375 74.4921875 C-8.88554069 72.50903259 -12.2940772 70.34343308 -15.6875 68.0625 C-16.36361328 67.61970703 -17.03972656 67.17691406 -17.73632812 66.72070312 C-18.70795898 66.07198242 -18.70795898 66.07198242 -19.69921875 65.41015625 C-20.57839966 64.82439819 -20.57839966 64.82439819 -21.4753418 64.22680664 C-23 63 -23 63 -25 60 C-22.41768612 57.89457973 -19.83396996 55.79088731 -17.25 53.6875 C-16.52039063 53.09259766 -15.79078125 52.49769531 -15.0390625 51.88476562 C-14.33007812 51.30791016 -13.62109375 50.73105469 -12.890625 50.13671875 C-12.24125977 49.60780029 -11.59189453 49.07888184 -10.92285156 48.53393555 C-8.97720537 46.98181581 -6.9984569 45.48329048 -5 44 C-5.60334309 40.29496359 -7.22474237 38.14031852 -9.5625 35.25 C-10.52349609 34.05117187 -10.52349609 34.05117187 -11.50390625 32.828125 C-11.99761719 32.22484375 -12.49132812 31.6215625 -13 31 C-16.89864034 32.69258044 -20.06607958 35.25988548 -23.375 37.875 C-27.47957353 41.10687215 -31.61729584 44.15322841 -36 47 C-42.32254835 39.30654311 -45.68032427 32.94008118 -45.34375 22.80078125 C-44.3218397 14.47453486 -40.40590002 7.39201656 -34 2 C-22.52545308 -5.67155423 -12.31566432 -5.98020238 0 0 Z " fill="#FB702F" transform="translate(158,145)"/>
<path d="M0 0 C5.64405747 4.6178652 11.25957095 10.27679865 13.75 17.25 C12.33241614 21.50275157 9.18156006 22.87884842 5.5625 25.1875 C4.90185547 25.61740234 4.24121094 26.04730469 3.56054688 26.49023438 C2.25069568 27.34234882 0.93577741 28.18672878 -0.38427734 29.02294922 C-2.24639148 30.21338344 -2.24639148 30.21338344 -3.90087891 31.52783203 C-5.42578125 32.69140625 -5.42578125 32.69140625 -8.25 34.25 C-11.74167381 33.19999196 -14.48831257 31.54850391 -17.4296875 29.4296875 C-18.19410156 28.89472656 -18.95851562 28.35976562 -19.74609375 27.80859375 C-21.33053476 26.68725701 -22.90872131 25.5570295 -24.48046875 24.41796875 C-27.8743277 22.06223136 -30.59571466 20.4052797 -34.640625 19.4453125 C-40.29628239 20.70620581 -44.45186178 23.92488242 -49.125 27.25 C-51.01724518 28.56391823 -52.91042157 29.87649675 -54.8046875 31.1875 C-56.04968018 32.06728516 -56.04968018 32.06728516 -57.31982422 32.96484375 C-59.25 34.25 -59.25 34.25 -60.25 34.25 C-61.12517486 24.37024826 -59.09683428 16.50100192 -53.1953125 8.4453125 C-38.33479931 -8.88338282 -19.75037125 -10.63481529 0 0 Z " fill="#FB982F" transform="translate(265.25,185.75)"/>
<path d="M0 0 C4.09507183 0.19709671 8.19247238 0.28170054 12.29095459 0.37689209 C20.28224422 0.57854344 28.26239649 0.90111287 36.24603271 1.30462646 C35.41305664 2.25619629 34.58008057 3.20776611 33.72186279 4.18817139 C31.23692981 7.05760473 28.9986717 10.02739755 26.77606201 13.10272217 C20.96321586 20.52560789 14.96445762 27.16078742 5.28805733 28.62351799 C-3.95152479 29.57645525 -13.2534493 29.1028598 -22.50793457 28.60925293 C-26.6030064 28.41215622 -30.70040695 28.32755239 -34.79888916 28.23236084 C-42.79017879 28.03070949 -50.77033106 27.70814006 -58.75396729 27.30462646 C-57.92099121 26.35305664 -57.08801514 25.40148682 -56.22979736 24.42108154 C-53.74486438 21.5516482 -51.50660627 18.58185538 -49.28399658 15.50653076 C-35.44022602 -2.17168128 -20.64923491 -1.10136912 0 0 Z " fill="#559BCB" transform="translate(292.75396728515625,66.69537353515625)"/>
<path d="M0 0 C0.99 0.495 0.99 0.495 2 1 C-0.0732868 7.01044333 -2.19185699 13.00352474 -4.34155273 18.98706055 C-5.06641516 21.02116435 -5.78111798 23.05892007 -6.48510742 25.1003418 C-7.50341737 28.04732359 -8.55847785 30.97890282 -9.62109375 33.91015625 C-9.92462265 34.81459976 -10.22815155 35.71904327 -10.5408783 36.65089417 C-13.41614884 44.38986096 -18.20638563 48.73263894 -25.63543701 52.24655151 C-28 53 -28 53 -30.37182617 52.04956055 C-31.57029175 51.22645386 -31.57029175 51.22645386 -32.79296875 50.38671875 C-33.67017578 49.79826172 -34.54738281 49.20980469 -35.45117188 48.60351562 C-36.35416016 47.97123047 -37.25714844 47.33894531 -38.1875 46.6875 C-39.9933182 45.46198701 -41.79929969 44.23671459 -43.60546875 43.01171875 C-44.40106201 42.45959717 -45.19665527 41.90747559 -46.01635742 41.33862305 C-48.99391667 39.32927445 -51.25187259 38.50906028 -54.90478516 38.56298828 C-59.43908967 39.50873578 -63.0354329 42.72753568 -66.6875 45.4375 C-68.3543637 46.64964839 -70.02480646 47.85689421 -71.69921875 49.05859375 C-72.42971436 49.59798584 -73.16020996 50.13737793 -73.9128418 50.69311523 C-76.05686358 52.03560542 -77.48020012 52.78064312 -80 53 C-81.92285156 52.10375977 -81.92285156 52.10375977 -83.890625 50.69140625 C-84.59960938 50.19189453 -85.30859375 49.69238281 -86.0390625 49.17773438 C-86.76867187 48.64470703 -87.49828125 48.11167969 -88.25 47.5625 C-89.36761719 46.76875977 -89.36761719 46.76875977 -90.5078125 45.95898438 C-92.34691496 44.65039224 -94.17682068 43.33064217 -96 42 C-95.34 40.68 -94.68 39.36 -94 38 C-93.67 38.33 -93.34 38.66 -93 39 C-88.44514965 38.14799094 -83.97711644 36.87773215 -79.5 35.6875 C-78.49773376 35.42380615 -78.49773376 35.42380615 -77.47521973 35.15478516 C-64.54903011 31.72470936 -52.31692433 27.12949622 -40.04589844 21.79101562 C-38 21 -38 21 -36 21 C-36 21.66 -36 22.32 -36 23 C-31.05 21.35 -26.1 19.7 -21 18 C-21 16.35 -21 14.7 -21 13 C-19.50292969 11.56201172 -19.50292969 11.56201172 -17.421875 10.4296875 C-16.29845703 9.79740234 -16.29845703 9.79740234 -15.15234375 9.15234375 C-14.35957031 8.73082031 -13.56679688 8.30929688 -12.75 7.875 C-11.20205465 7.02016451 -9.65514574 6.16344902 -8.109375 5.3046875 C-7.41811523 4.93327637 -6.72685547 4.56186523 -6.01464844 4.17919922 C-3.87884975 2.92908923 -1.95196535 1.51837753 0 0 Z " fill="#CE7525" transform="translate(437,167)"/>
<path d="M0 0 C25.41 0 50.82 0 77 0 C77 5.61 77 11.22 77 17 C51.59 17 26.18 17 0 17 C0 11.39 0 5.78 0 0 Z " fill="#D2D5D7" transform="translate(264,34)"/>
<path d="M0 0 C2.4609375 7.3828125 4.921875 14.765625 7.3828125 22.1484375 C7.64864136 22.94536011 7.91447021 23.74228271 8.18835449 24.56335449 C8.71747363 26.15184788 9.24523278 27.74079494 9.77160645 29.3302002 C10.92302667 32.80236334 12.09308419 36.26187687 13.31835938 39.70898438 C13.69283203 40.76923828 14.06730469 41.82949219 14.453125 42.921875 C14.77958008 43.8200293 15.10603516 44.71818359 15.44238281 45.64355469 C16.05497798 48.23233253 16.07057814 49.56989874 15 52 C12.12890625 53.265625 12.12890625 53.265625 8.5625 54.25 C7.38816406 54.58515625 6.21382813 54.9203125 5.00390625 55.265625 C2 56 2 56 0 56 C-2.4609375 48.6171875 -4.921875 41.234375 -7.3828125 33.8515625 C-7.64864136 33.05463989 -7.91447021 32.25771729 -8.18835449 31.43664551 C-8.71747363 29.84815212 -9.24523278 28.25920506 -9.77160645 26.6697998 C-10.92302667 23.19763666 -12.09308419 19.73812313 -13.31835938 16.29101562 C-13.88006836 14.70063477 -13.88006836 14.70063477 -14.453125 13.078125 C-14.77958008 12.1799707 -15.10603516 11.28181641 -15.44238281 10.35644531 C-16.05410436 7.77135933 -16.04964639 6.43232124 -15 4 C-12.3828125 2.734375 -12.3828125 2.734375 -9.125 1.75 C-8.05507813 1.41484375 -6.98515625 1.0796875 -5.8828125 0.734375 C-3 0 -3 0 0 0 Z " fill="#040200" transform="translate(401,134)"/>
<path d="M0 0 C2.4609375 7.3828125 4.921875 14.765625 7.3828125 22.1484375 C7.64856079 22.94536011 7.91430908 23.74228271 8.18811035 24.56335449 C8.7174567 26.15204275 9.24602572 27.74099023 9.77380371 29.3302002 C10.92582323 32.79647137 12.08889832 36.25695266 13.28320312 39.70898438 C13.64865234 40.76923828 14.01410156 41.82949219 14.390625 42.921875 C14.70547852 43.8200293 15.02033203 44.71818359 15.34472656 45.64355469 C16 48 16 48 16 52 C13.89748139 52.67184618 11.79292237 53.33730968 9.6875 54 C8.51574219 54.37125 7.34398437 54.7425 6.13671875 55.125 C3 56 3 56 0 56 C-1.80158065 50.93384618 -3.59782097 45.86584048 -5.3894043 40.79614258 C-5.99801052 39.07623846 -6.60800495 37.35682485 -7.21948242 35.63793945 C-16 10.94766966 -16 10.94766966 -16 5 C-13.70967689 4.16280617 -11.41789043 3.3301071 -9.125 2.5 C-8.47402344 2.26152344 -7.82304687 2.02304688 -7.15234375 1.77734375 C-2.2265625 0 -2.2265625 0 0 0 Z " fill="#040200" transform="translate(426,74)"/>
<path d="M0 0 C7.2859164 0.99755181 11.81609531 6.30943755 16.3125 11.8125 C26.07935558 25.78415989 22.3220355 45.56723791 19.53466797 61.33837891 C17.28941888 72.51541343 12.80437589 82.87012051 8.0625 93.1875 C7.66796631 94.06092041 7.27343262 94.93434082 6.86694336 95.83422852 C3.54918337 102.76574933 -0.59265743 107.72843828 -7 112 C-9.1875 111.625 -9.1875 111.625 -11 111 C-10.41734375 110.31679688 -9.8346875 109.63359375 -9.234375 108.9296875 C7.03794561 87.59360279 16.08590303 52.46877654 13 26 C11.25599231 16.91877652 7.65889107 10.21996447 2 3 C1.34 2.01 0.68 1.02 0 0 Z " fill="#E79C45" transform="translate(157,388)"/>
<path d="M0 0 C6.3318244 4.93882303 12.40658066 10.81056571 14 19 C6.71168804 24.06915051 -0.5862407 29.1149648 -8 34 C-8.66 33.67 -9.32 33.34 -10 33 C-9.44570312 31.97261719 -8.89140625 30.94523437 -8.3203125 29.88671875 C-3.15375459 20.09158856 0.61317859 11.34380396 0 0 Z " fill="#ED8B21" transform="translate(265,186)"/>
<path d="M0 0 C0.33 0 0.66 0 1 0 C1 33.99 1 67.98 1 103 C0.67 103 0.34 103 0 103 C-0.14695312 102.05640625 -0.29390625 101.1128125 -0.4453125 100.140625 C-1.85117875 92.09325269 -3.74379121 85.60229887 -7.79296875 78.390625 C-9 76 -9 76 -9 73 C-7.72482707 71.87296789 -6.40420075 70.79695103 -5.0625 69.75 C-1.21950561 66.02222766 -0.3588178 63.44461625 0 58.125 C0.04054817 55.40860912 0.039803 52.71423596 0 50 C0.00752915 48.5540957 0.01857249 47.10820584 0.03295898 45.66235352 C0.06124952 41.88069623 0.04220083 38.10074364 0.01287842 34.31915283 C-0.00860204 30.45093985 0.01525454 26.58302601 0.03515625 22.71484375 C0.06750266 15.14280513 0.04978047 7.57199172 0 0 Z " fill="#4B87AF" transform="translate(298,111)"/>
<path d="M0 0 C1.9375 0.375 1.9375 0.375 4 1 C4.33 1.66 4.66 2.32 5 3 C3.8553125 3.1546875 3.8553125 3.1546875 2.6875 3.3125 C-0.17059424 4.04364039 -1.15742885 4.76951913 -3 7 C-3.66 6.67 -4.32 6.34 -5 6 C-3.35 4.02 -1.7 2.04 0 0 Z " fill="#313C0F" transform="translate(81,102)"/>
</svg>
